HIERARCHY
ROOT Hips
{
	OFFSET 0.000000 0.000000 0.000000 
	CHANNELS 6 Xposition Yposition Zposition Zrotation Yrotation Xrotation
	JOINT LeftUpLeg
	{
		OFFSET 1.363060 -1.794630 0.839290 
		CHANNELS 3 Zrotation Yrotation Xrotation
		JOINT LeftLeg
		{
			OFFSET 2.448110 -6.726130 0.000000 
			CHANNELS 3 Zrotation Yrotation Xrotation
			JOINT LeftFoot
			{
				OFFSET 2.562200 -7.039590 0.000000 
				CHANNELS 3 Zrotation Yrotation Xrotation
				JOINT LeftToeBase
				{
					OFFSET 0.157640 -0.433110 2.322550 
					CHANNELS 3 Zrotation Yrotation Xrotation
					End Site
					{
						OFFSET 0.000000 0.000000 0.000000 
					}
				}
			}
		}
	}
	JOINT RightUpLeg
	{
		OFFSET -1.305520 -1.794630 0.839290 
		CHANNELS 3 Zrotation Yrotation Xrotation
		JOINT RightLeg
		{
			OFFSET -2.542530 -6.985550 0.000000 
			CHANNELS 3 Zrotation Yrotation Xrotation
			JOINT RightFoot
			{
				OFFSET -2.568260 -7.056230 0.000000 
				CHANNELS 3 Zrotation Yrotation Xrotation
				JOINT RightToeBase
				{
					OFFSET -0.164730 -0.452590 2.363150 
					CHANNELS 3 Zrotation Yrotation Xrotation
					End Site
					{
						OFFSET 0.000000 0.000000 0.000000 
					}
				}
			}
		}
	}
	JOINT Spine
	{
		OFFSET 0.028270 2.035590 -0.193380 
		CHANNELS 3 Zrotation Yrotation Xrotation
		JOINT Spine1
		{
			OFFSET 0.056720 2.048850 -0.042750 
			CHANNELS 3 Zrotation Yrotation Xrotation
			JOINT Neck1
			{
				OFFSET -0.054170 1.746240 0.172020 
				CHANNELS 3 Zrotation Yrotation Xrotation
				JOINT Head
				{
					OFFSET 0.104070 1.761360 -0.123970 
					CHANNELS 3 Zrotation Yrotation Xrotation
					End Site
					{
						OFFSET 0.000000 0.000000 0.000000 
					}
				}
			}
			JOINT LeftArm
			{
				OFFSET 3.362410 1.200890 -0.311210 
				CHANNELS 3 Zrotation Yrotation Xrotation
				JOINT LeftForeArm
				{
					OFFSET 4.983000 -0.000000 -0.000000 
					CHANNELS 3 Zrotation Yrotation Xrotation
					JOINT LeftHand
					{
						OFFSET 3.483560 -0.000000 -0.000000 
						CHANNELS 3 Zrotation Yrotation Xrotation
						JOINT LeftHandIndex1
						{
							OFFSET 0.715260 -0.000000 -0.000000 
							CHANNELS 3 Zrotation Yrotation Xrotation
							End Site
							{
								OFFSET 0.000000 0.000000 0.000000 
							}
						}
					}
				}
			}
			JOINT RightArm
			{
				OFFSET -3.136600 1.374050 -0.404650 
				CHANNELS 3 Zrotation Yrotation Xrotation
				JOINT RightForeArm
				{
					OFFSET -5.241900 -0.000000 -0.000000 
					CHANNELS 3 Zrotation Yrotation Xrotation
					JOINT RightHand
					{
						OFFSET -3.444170 -0.000000 -0.000000 
						CHANNELS 3 Zrotation Yrotation Xrotation
						JOINT RightHandIndex1
						{
							OFFSET -0.622530 -0.000000 -0.000000 
							CHANNELS 3 Zrotation Yrotation Xrotation
							End Site
							{
								OFFSET 0.000000 0.000000 0.000000 
							}
						}
					}
				}
			}
		}
	}
}
MOTION
Frames: 15
Frame Time: 0.041667
32.916104 17.755040 6.474032 -158.393842 -85.930192 165.858421 -16.327267 -6.546909 -6.926407 -0.566080 4.543617 11.056750 -0.355699 4.168001 1.339052 0.052200 1.475000 4.056700 15.233725 0.519069 -31.572246 -11.033113 -18.514469 62.871811 3.076890 -17.439179 -1.731681 -0.159300 -2.571900 7.089100 0.755201 -0.935363 -5.509870 4.734385 -0.545441 -3.210490 9.576179 -1.967671 5.448763 4.082600 -0.743700 5.145900 -84.326954 -17.318689 37.776922 115.894639 -55.350344 -77.285547 -0.613690 1.778200 0.621008 -7.125000 0.000000 0.000000 78.620664 18.470680 27.569692 -116.578083 59.972073 -82.696874 -0.823182 -0.419539 -3.565508 7.125000 0.000000 0.000000 
32.801089 17.749835 6.481740 -160.490465 -85.939405 167.893142 -16.611666 -6.424657 -6.391459 -0.565440 4.516698 10.991808 -0.351340 4.111349 0.932480 0.051500 1.464500 4.027800 15.086426 0.771230 -32.425452 -10.683572 -18.365215 61.811220 3.061236 -17.271566 -2.410724 -0.151800 -2.510700 6.919400 0.762975 -1.039199 -5.391795 4.753160 -0.601668 -2.803444 9.608133 -2.072228 5.667223 4.076400 -0.775000 5.312800 -84.335244 -19.212314 37.141646 113.415628 -56.026446 -74.827712 -0.679098 1.808910 -0.693909 -7.125000 0.000000 0.000000 78.677169 20.194338 26.861225 -112.787254 60.762174 -79.721893 -0.783247 -0.382473 -4.005691 7.125000 0.000000 0.000000 
32.687176 17.742928 6.491149 -163.595783 -85.916645 170.851015 -16.947939 -6.100561 -5.874793 -0.565071 4.463874 10.883824 -0.326777 3.959000 0.604218 0.052400 1.477500 4.063700 14.877007 1.025188 -33.191774 -10.287905 -18.176383 60.585666 3.059909 -17.177443 -3.129401 -0.121300 -2.245200 6.183800 0.830033 -1.208282 -5.665007 5.041861 -0.649771 -3.854925 9.571155 -1.984665 5.922868 4.087900 -0.772200 5.226400 -84.568155 -19.523000 36.421642 110.972859 -56.645345 -72.357864 -0.751485 1.830907 -1.763628 -7.125000 0.000000 0.000000 78.458561 20.511175 26.580219 -108.949742 61.378578 -76.707294 -0.739659 -0.342266 -4.803100 7.125000 0.000000 0.000000 
32.570360 17.733819 6.499958 -165.463312 -85.895559 172.678015 -17.246691 -6.033552 -5.338603 -0.560354 4.454907 10.865146 -0.341596 4.002368 0.163575 0.051200 1.459900 4.015200 14.761214 1.185875 -33.794338 -9.747255 -17.907861 58.860189 3.136979 -17.461305 -3.759299 -0.122200 -2.253400 6.206500 0.821239 -1.279701 -5.466237 4.969074 -0.701289 -3.137746 9.616880 -2.088020 6.062426 4.087100 -0.795400 5.390600 -84.702467 -21.664361 35.540893 107.308276 -57.572912 -68.716125 -0.825654 1.867048 -2.662833 -7.125000 0.000000 0.000000 78.588025 22.476686 25.847969 -103.617130 62.041915 -72.510758 -0.701891 -0.299269 -5.456673 7.125000 0.000000 0.000000 
32.453844 17.725511 6.508567 -167.456001 -85.862335 174.596284 -17.540788 -5.868115 -4.817766 -0.556367 4.431825 10.821783 -0.341447 3.975593 -0.249697 0.048900 1.426900 3.924300 14.628626 1.368943 -34.422727 -9.243956 -17.637749 57.240268 3.176464 -17.584262 -4.371082 -0.114000 -2.177400 5.996100 0.842400 -1.378275 -5.453283 5.037588 -0.744906 -3.109019 9.625779 -2.131548 6.257551 4.088800 -0.815600 5.464500 -84.892506 -23.099950 34.634901 103.819850 -58.403268 -65.289421 -0.893318 1.891597 -3.560731 -7.125000 0.000000 0.000000 78.594413 23.755110 25.377684 -98.582918 62.393776 -68.540087 -0.668822 -0.259744 -6.242150 7.125000 0.000000 0.000000 
32.336328 17.716402 6.516875 -169.190517 -85.824968 176.266912 -17.821020 -5.705901 -4.309383 -0.551473 4.412546 10.789345 -0.341677 3.954682 -0.672132 0.045500 1.376800 3.786300 14.516267 1.520371 -34.979710 -8.697225 -17.320676 55.443940 3.228717 -17.774096 -4.913962 -0.106000 -2.099600 5.780900 0.865119 -1.467231 -5.442253 5.108492 -0.782194 -3.077593 9.630405 -2.178644 6.449133 4.090100 -0.838400 5.536200 -85.134804 -24.534230 33.629272 99.893915 -59.286010 -61.532567 -0.948503 1.915277 -4.313560 -7.125000 0.000000 0.000000 78.598974 24.979132 24.989953 -93.331936 62.499480 -64.368885 -0.636733 -0.224237 -7.211859 7.125000 0.000000 0.000000 
32.217710 17.706692 6.524582 -170.572492 -85.790269 177.604814 -18.073155 -5.539808 -3.828886 -0.545940 4.398392 10.770029 -0.337349 3.916963 -1.091424 0.041400 1.313400 3.611700 14.433215 1.642000 -35.468074 -8.111870 -16.952753 53.479260 3.290323 -18.010291 -5.403253 -0.103200 -2.072000 5.704600 0.887307 -1.543168 -5.425199 5.170229 -0.812730 -3.013251 9.632406 -2.240266 6.642671 4.088700 -0.866400 5.620800 -85.422331 -26.009674 32.534570 95.477403 -60.190302 -57.481068 -0.981956 1.940001 -4.919404 -7.125000 0.000000 0.000000 78.606970 26.165059 24.672757 -88.061839 62.350362 -60.130986 -0.604770 -0.195380 -8.380718 7.125000 0.000000 0.000000 
32.098191 17.696382 6.531389 -171.700842 -85.762485 178.707065 -18.301272 -5.368077 -3.376879 -0.539988 4.388126 10.762257 -0.327912 3.858583 -1.504593 0.036800 1.238100 3.404200 14.373419 1.734908 -35.886790 -7.495182 -16.530798 51.357554 3.355464 -18.265391 -5.809495 -0.104000 -2.079000 5.724200 0.913611 -1.613807 -5.422008 5.243376 -0.838082 -2.986782 9.629616 -2.305249 6.835079 4.086600 -0.898100 5.698400 -85.761322 -27.423065 31.388203 90.576198 -61.035059 -53.230514 -0.986214 1.969802 -5.377296 -7.125000 0.000000 0.000000 78.596705 27.218064 24.439554 -82.991092 61.981285 -55.988715 -0.573222 -0.173970 -9.713152 7.125000 0.000000 0.000000 
31.977271 17.685271 6.537295 -172.695223 -85.745644 179.693852 -18.515954 -5.204186 -2.951231 -0.533081 4.384275 10.771343 -0.313886 3.782989 -1.914129 0.032400 1.162300 3.195500 14.327665 1.800369 -36.235745 -6.851145 -16.050304 49.077818 3.420522 -18.520534 -6.109762 -0.111300 -2.151100 5.923500 0.940736 -1.681400 -5.418900 5.315053 -0.862258 -2.947123 9.630388 -2.375891 7.014963 4.085300 -0.932500 5.771500 -86.120092 -28.792220 30.257503 85.238508 -61.697039 -48.885747 -0.961143 2.007322 -5.717756 -7.125000 0.000000 0.000000 78.575516 28.172086 24.255604 -78.238708 61.452640 -52.046810 -0.543389 -0.158734 -11.089714 7.125000 0.000000 0.000000 
31.854949 17.673259 6.542400 -173.569651 -85.741663 -179.417798 -18.715889 -5.047927 -2.549478 -0.525882 4.384492 10.791039 -0.295190 3.689686 -2.311256 0.028700 1.092700 3.004000 14.294390 1.844561 -36.512933 -6.187929 -15.508642 46.651528 3.480494 -18.754075 -6.270822 -0.124000 -2.269900 6.252300 0.968536 -1.742569 -5.416140 5.387307 -0.884243 -2.900850 9.635486 -2.465372 7.194680 4.084300 -0.974600 5.853400 -86.496285 -30.097103 29.249473 79.614914 -62.039447 -44.562103 -0.917388 2.053847 -5.987923 -7.125000 0.000000 0.000000 78.532201 29.024111 24.081228 -73.845218 60.815489 -48.359781 -0.517510 -0.146567 -12.324231 7.125000 0.000000 0.000000 
31.730826 17.660346 6.546704 -174.457978 -85.749563 -178.501056 -18.913505 -4.901604 -2.159495 -0.518520 4.386493 10.815658 -0.274057 3.589374 -2.703176 0.025200 1.024300 2.815700 14.261176 1.872254 -36.713074 -5.511526 -14.901460 44.079103 3.531868 -18.950876 -6.266820 -0.139400 -2.406600 6.630700 0.998418 -1.810448 -5.426281 5.466736 -0.909750 -2.888201 9.654474 -2.550272 7.353099 4.093500 -1.017600 5.911200 -86.870504 -31.228184 28.416536 73.962105 -61.978948 -40.391575 -0.865315 2.107963 -6.234365 -7.125000 0.000000 0.000000 78.471919 29.706143 23.942720 -69.819482 60.108449 -44.956736 -0.497306 -0.134206 -13.224420 7.125000 0.000000 0.000000 
31.604601 17.646433 6.550108 -175.348869 -85.765181 -177.567798 -19.105806 -4.753661 -1.780187 -0.511211 4.388728 10.840547 -0.249521 3.477365 -3.082487 0.021700 0.950800 2.613600 14.226056 1.897176 -36.832845 -4.831594 -14.228758 41.376241 3.570419 -19.095177 -6.083116 -0.154200 -2.530600 6.974600 1.028094 -1.871663 -5.437010 5.549577 -0.933026 -2.873246 9.682200 -2.647620 7.496614 4.107100 -1.066300 5.967800 -87.244193 -32.243085 27.786171 68.478424 -61.520069 -36.444277 -0.814425 2.167197 -6.489904 -7.125000 0.000000 0.000000 78.386323 30.278805 23.788479 -66.102929 59.347855 -41.807807 -0.483500 -0.119295 -13.642820 7.125000 0.000000 0.000000 
31.476273 17.631318 6.552610 -176.304154 -85.795593 -176.556754 -19.297397 -4.612194 -1.406904 -0.504217 4.389725 10.862597 -0.221363 3.351941 -3.448844 0.018900 0.886600 2.436800 14.178913 1.928382 -36.870004 -4.157849 -13.491498 38.561417 3.590008 -19.164176 -5.765312 -0.168700 -2.645700 7.293700 1.056322 -1.930941 -5.456814 5.633919 -0.955487 -2.887684 9.713055 -2.751479 7.629334 4.123300 -1.118900 6.019900 -87.615911 -33.116903 27.322010 63.318278 -60.727311 -32.782021 -0.769662 2.230628 -6.786342 -7.125000 0.000000 0.000000 78.279081 30.710758 23.624667 -62.670108 58.546535 -38.903175 -0.475621 -0.100622 -13.539213 7.125000 0.000000 0.000000 
31.345643 17.615101 6.553912 -177.341297 -85.845952 -175.452054 -19.488897 -4.480410 -1.036246 -0.497512 4.389343 10.881194 -0.191360 3.221791 -3.806442 0.015700 0.809100 2.223700 14.115439 1.972022 -36.825282 -3.500732 -12.692166 35.653133 3.589638 -19.158478 -5.317642 -0.171600 -2.668200 7.356200 1.084680 -1.991816 -5.478346 5.725463 -0.978933 -2.903363 9.750858 -2.857561 7.745639 4.144900 -1.173000 6.066800 -87.981394 -33.881347 26.983264 58.523683 -59.676209 -29.417002 -0.728351 2.299366 -7.091181 -7.125000 0.000000 0.000000 78.145879 31.039425 23.452008 -59.484143 57.711297 -36.219702 -0.472340 -0.078407 -12.997163 7.125000 0.000000 0.000000 
31.212711 17.597584 6.554012 -178.463781 -85.921225 -174.252776 -19.669770 -4.332615 -0.673485 -0.491650 4.384036 10.888101 -0.153485 3.056592 -4.138488 0.012700 0.729000 2.003500 14.026423 2.047345 -36.694624 -2.869287 -11.834887 32.674388 3.564549 -19.057057 -4.843779 -0.164100 -2.610200 7.195200 1.120216 -2.052684 -5.526069 5.860673 -0.998080 -3.017266 9.763544 -2.968627 7.869818 4.157200 -1.232200 6.118900 -88.373482 -34.477469 26.749369 54.111544 -58.435787 -26.354176 -0.687841 2.373906 -7.368413 -7.125000 0.000000 0.000000 77.952152 31.195167 23.289881 -56.585929 56.863844 -33.792289 -0.471719 -0.053979 -12.215070 7.125000 0.000000 0.000000 
